<svg id="Layer_1" data-name="Layer 1" xmlns="http://www.w3.org/2000/svg" viewBox="0 0 681.44 301.44"><defs><style>.cls-1{font-size:46.23px;font-family:BrushKing, Brush King;}.cls-1,.cls-7{fill:#000333;}.cls-2{letter-spacing:-0.05em;}.cls-3{letter-spacing:-0.09em;}.cls-4{letter-spacing:-0.06em;}.cls-5{letter-spacing:-0.13em;}.cls-6{letter-spacing:0em;}</style></defs><title>logo</title><text class="cls-1" transform="translate(2.21 263.9)">JA<tspan class="cls-2" x="85.98" y="0">c</tspan><tspan class="cls-3" x="122.11" y="0">k</tspan><tspan x="167.14" y="0">s A</tspan><tspan class="cls-4" x="278.69" y="0">u</tspan><tspan x="326.66" y="0">to RE</tspan><tspan class="cls-5" x="524.79" y="0">p</tspan><tspan class="cls-6" x="562.15" y="0">air</tspan></text><path class="cls-7" d="M345.64,136.48l25.6,25.6,7.73-7.73-25.6-25.6V108.21L314.78,80.39l-17.5,17.5,27.82,38.59Z" transform="translate(-68.57 -80.39)"/><path class="cls-7" d="M427.88,90c-16.69,16.7-6.64,36.38-6.55,37.47l-77,77c-1.09-.09-20.73-10.2-37.47,6.54a32.88,32.88,0,0,0-6.41,37.33l21.88-21.87,15.46,15.46-21.87,21.87a32.78,32.78,0,0,0,37.33-6.41c16.69-16.68,6.64-36.37,6.55-37.46l77-77c1.1.11,20.8,10.13,37.47-6.55A32.84,32.84,0,0,0,480.67,99L458.8,120.91l-15.46-15.46,21.87-21.88A32.86,32.86,0,0,0,427.88,90Z" transform="translate(-68.57 -80.39)"/><path class="cls-7" d="M394.4,200.69l23.18-23.18,7.76,7.76-23.18,23.18Z" transform="translate(-68.57 -80.39)"/><path class="cls-7" d="M460.69,267l-50.76-50.77L433.1,193l50.77,50.76Z" transform="translate(-68.57 -80.39)"/></svg>